<svg version="1.1" xmlns="http://www.w3.org/2000/svg" xmlns:xlink="http://www.w3.org/1999/xlink" width="72px" height="72px" viewBox="0,0,256,256"><g fill="#fa5252" fill-rule="nonzero" stroke="none" stroke-width="1" stroke-linecap="butt" stroke-linejoin="miter" stroke-miterlimit="10" stroke-dasharray="" stroke-dashoffset="0" font-family="none" font-weight="none" font-size="none" text-anchor="none" style="mix-blend-mode: normal"><g transform="scale(3.55556,3.55556)"><path d="M36,8c-10.746,0 -19.48828,8.74423 -19.48828,19.49023c0,9.37471 6.6553,17.22157 15.48828,19.07227v5.4375h-3c-2.209,0 -4,1.791 -4,4c0,2.209 1.791,4 4,4h3v3.78125c0,2.209 1.791,4 4,4c2.209,0 4,-1.791 4,-4v-3.78125h3.17383c2.209,0 4,-1.791 4,-4c0,-2.209 -1.791,-4 -4,-4h-3.17383v-5.4375c8.83299,-1.85089 15.48828,-9.69951 15.48828,-19.07422c0,-10.746 -8.74228,-19.48828 -19.48828,-19.48828zM36,16c6.335,0 11.48828,5.15523 11.48828,11.49023c0,6.335 -5.15328,11.48828 -11.48828,11.48828c-6.335,0 -11.48828,-5.15523 -11.48828,-11.49023c0,-6.335 5.15328,-11.48828 11.48828,-11.48828z"></path></g></g></svg>