<svg version="1.1" xmlns="http://www.w3.org/2000/svg" xmlns:xlink="http://www.w3.org/1999/xlink" width="72px" height="72px" viewBox="0,0,256,256"><g fill="#5c7cfa" fill-rule="nonzero" stroke="none" stroke-width="1" stroke-linecap="butt" stroke-linejoin="miter" stroke-miterlimit="10" stroke-dasharray="" stroke-dashoffset="0" font-family="none" font-weight="none" font-size="none" text-anchor="none" style="mix-blend-mode: normal"><g transform="scale(3.55556,3.55556)"><path d="M46,12c-2.209,0 -4,1.791 -4,4c0,2.209 1.791,4 4,4h0.34375l-6.17773,6.17773c-3.14416,-2.06379 -6.81767,-3.17773 -10.66602,-3.17773c-5.209,0 -10.10411,2.02794 -13.78711,5.71094c-0.268,0 -5.71289,5.58006 -5.71289,13.78906c0,5.209 2.02794,10.10411 5.71094,13.78711c3.684,3.684 8.58006,5.71289 13.78906,5.71289c5.209,0 10.10411,-2.02794 13.78711,-5.71094c3.684,-3.684 5.71289,-8.58006 5.71289,-13.78906c0,-3.84778 -1.11494,-7.52061 -3.17773,-10.66406l6.17773,-6.17969v0.34375c0,2.209 1.791,4 4,4c2.209,0 4,-1.791 4,-4v-10c0,-2.209 -1.791,-4 -4,-4zM29.5,31c3.071,0 5.95981,1.19614 8.13281,3.36914c2.172,2.172 3.36719,5.05986 3.36719,8.13086c0,3.071 -1.19614,5.95981 -3.36914,8.13281c-2.172,2.172 -5.05986,3.36719 -8.13086,3.36719c-3.071,0 -5.95981,-1.19614 -8.13281,-3.36914c-2.172,-2.172 -3.36719,-5.05986 -3.36719,-8.13086c0,-3.071 1.19714,-5.95886 3.36914,-8.13086c2.172,-2.172 5.05986,-3.36914 8.13086,-3.36914z"></path></g></g></svg>